<?xml version="1.0" encoding="utf-8"?>
<!-- Generator: Adobe Illustrator 22.1.0, SVG Export Plug-In . SVG Version: 6.00 Build 0)  -->
<svg version="1.1" id="logo_outline" xmlns="http://www.w3.org/2000/svg" xmlns:xlink="http://www.w3.org/1999/xlink" x="0px"
	 y="0px" viewBox="0 0 81 77.2" style="enable-background:new 0 0 81 77.2;" xml:space="preserve">
<style type="text/css">
	.st0{fill:none;stroke:#FB5E5E;stroke-width:4;stroke-miterlimit:10;}
	.st1{fill:none;stroke:#FB5E5E;stroke-width:4;stroke-linecap:round;stroke-miterlimit:10;}
</style>
<g>
	<g id="icon_3_">
		<path class="st0" d="M54.6,58.5"/>
		<path class="st0" d="M25.2,58.5"/>
		<path class="st0" d="M54.6,58.5"/>
		<path class="st0" d="M32.3,41.5c0,0,0.4-2.8-0.5-6.7c-0.6-2.6-3.7-4.8-6.1-3.9c-2.4,0.9-2.7,3.7-1.8,6.2
			C25.6,41.9,32.3,41.5,32.3,41.5"/>
		<path class="st0" d="M40.5,39.6c0,0,4.6-1.3,4.6-6.1c0-2.6-2-4.7-4.5-4.7S36,30.9,36,33.5C36,38.4,40.5,39.6,40.5,39.6"/>
		<path class="st0" d="M57.2,37c0.9-2.5,0.6-5.3-1.8-6.2c-2.4-0.9-5.3,1.3-6,3.9c-1,3.5-0.6,6.6-0.6,6.6S55.5,41.8,57.2,37z"/>
		<path class="st0" d="M40.5,39.6C40.5,39.6,40.5,39.6,40.5,39.6"/>
		<path class="st0" d="M40.5,39.6c1.1,0.4,3.1,2.2,7.9,2.2"/>
		<path class="st0" d="M40.5,39.6C40.5,39.6,40.5,39.6,40.5,39.6"/>
		<path class="st0" d="M40.5,39.6c-1.1,0.4-2.7,2.2-7.9,2.2"/>
		<path class="st0" d="M32.5,40.8c0,2.1,0,5,0,7.6c0,6.7-3.1,10-7.3,10"/>
		<path class="st1" d="M54.6,58.5c2.9,1.5,2.5,4,1.5,5.4c-1.9,2.8-5.7,4.3-9.3,4.7"/>
		<path class="st0" d="M48.4,41.8c0,2.1,0,4,0,6.6c0,5.9,2.8,8.4,6.3,10"/>
		<path class="st0" d="M50.5,65.6c0,5.3-4.7,8-7.5,8.9c-6.1,1.8-26.3,0.8-26.3-10.9"/>
		<path class="st1" d="M50.5,64.5c0-3.8-4.6-5.5-10-5.5c-5.5,0-10,2.1-10,5.2c0,3.1,4.5,5.1,10,5.1C45.9,69.4,50.5,68.4,50.5,64.5"
			/>
		<path class="st0" d="M61,58.5h13.1c4.1,0,6.4-4.6,4.1-7.9L44.6,4.1c-2-2.8-6.1-2.8-8.1,0L3,50.5c-2.4,3.3,0,7.9,4.1,7.9h18.4"/>
		<path class="st1" d="M61,58.5"/>
	</g>
</g>
</svg>
