<?xml version="1.0" encoding="UTF-8" standalone="no"?>
<svg xmlns:rdf="http://www.w3.org/1999/02/22-rdf-syntax-ns#" xmlns="http://www.w3.org/2000/svg" height="100%" width="100%" version="1.1" xmlns:cc="http://creativecommons.org/ns#" xmlns:dc="http://purl.org/dc/elements/1.1/" viewBox="0 -150 3305 1024">
 <title>ASKfm Wordmark</title>
 <metadata>
  <rdf:RDF>
   <cc:Work rdf:about="">
    <dc:format>image/svg+xml</dc:format>
    <dc:type rdf:resource="http://purl.org/dc/dcmitype/StillImage"/>
    <dc:title>ASKfm Wordmark</dc:title>
    <dc:publisher>
     <cc:Agent>
      <dc:title>ASKfm</dc:title>
     </cc:Agent>
    </dc:publisher>
    <dc:source>ASKfm</dc:source>
    <dc:date>January 14, 2016</dc:date>
    <dc:creator>
     <cc:Agent>
      <dc:title>ASKfm</dc:title>
     </cc:Agent>
    </dc:creator>
    <dc:rights>
     <cc:Agent>
      <dc:title>Inelligible for Copyright. Protected under Trademark Rights.</dc:title>
     </cc:Agent>
    </dc:rights>
   </cc:Work>
  </rdf:RDF>
 </metadata>
 <path d="m1256.2804,719.51642q-56.4386,0-110.7868-10.97346-54.3482-10.97347-101.3804-31.87531-52.25788-24.03711-87.79326-58.0026-35.53539-33.96549-51.21277-76.81425-12.5419-38.6684,0.52258-72.63389t46.50955-48.59677q33.44507-14.63129,59.0515-14.10874,25.6063,0.52254,42.8514,12.01855,17.2452,11.49601,29.7871,25.08221,14.6322,16.72147,30.3096,29.26257,64.7998,52.2546,144.2318,52.2546,40.7612,1.04509,77.8643-9.40583t39.1935-45.98404q0-29.26258-22.471-43.89386-22.4709-14.63129-67.4127-28.21749l-100.3352-34.48803q-187.08333-63.7506-227.84451-139.51977-40.76117-75.76916-32.39991-136.38449v-1.045091q4.18064-97.193547,101.38032-165.124521,97.1998-67.930978,237.251-71.066248,111.832,0,193.3543,35.53312,81.5224,35.533128,122.2835,101.373918,27.1742,42.848768,18.8129,76.291709-5.2258,17.766562-17.2451,29.262573-12.0193,11.49601-23.5161,17.76656-45.987,22.99202-75.2514,22.99202-21.9483,0-40.7612-10.45091-18.8128-10.45092-40.7611-26.127302l-8.3613-6.270552q-53.3031-38.6684-107.6513-38.6684-47.0322,0-73.6837,14.631286-26.6515,14.631287-26.6515,39.190948,0,24.55966,21.4257,38.6684,21.4258,14.10874,56.9611,24.55966l134.8255,42.84877q139.006,42.84876,198.5801,129.59139,25.0838,37.62331,32.3999,69.49861,7.3161,31.87531,6.2709,49.64187,0,60.61533-30.3096,110.25719-30.3095,49.64187-88.8384,85.17499-52.2579,30.30767-119.1481,47.02914-66.8901,16.72147-140.0512,16.72147zm1019.0294,105.55428q-1.0451-28.21748,11.4968-42.32622t27.1741-18.28911q25.0838-9.40583,44.4192-26.1273,19.3355-16.72147,29.787-39.71349,10.4516-26.1273,16.7226-61.66042,3.1355-14.63129,4.1806-28.21748,2.0903-8.36074,2.0903-16.72147l3.1355-16.72147,6.271-48.07423,3.1354-16.72147q0-8.36074,2.0903-16.72147l3.1355-20.90184q0-6.27055,2.0903-12.5411l1.0452-10.45092,11.4967-81.51717,3.1355-27.17239,7.3161-48.07423q2.0903-3.13527,0-3.13527,1.0452-1.04509-3.1355-1.04509h-32.3999q-17.7677,0-25.0838-15.67638-2.0903-5.22546-2.0903-11.49601,2.0903-21.94693,6.271-43.89386,3.1354-12.5411,13.587-18.81166,10.4516-6.27055,21.9484-7.31564h34.4902q2.0903-6.27055,2.0903-11.49601,2.0903-14.63129,5.2258-27.17239,7.3161-36.57822,26.129-65.84079,24.0386-37.623308,61.6643-56.434962l18.8128-8.360735q9.4065-5.22546,20.9032-7.315644,14.6322-4.180367,37.6257-7.3156429,25.0838-3.1352757,47.0321-3.1352757h9.4065q18.8128,1.0450919,36.5805,4.1803676,9.4064,1.0450919,16.7226,9.405827,7.3161,8.360735,6.7935,21.424384t-3.6581,27.694935q-1.0451,9.405827-3.1354,18.811655l-1.0452,5.225459q-1.0452,7.315643-7.3161,12.541102-6.271,5.22546-13.5871,5.22546h-35.5354q-7.3161-1.04509-16.7225-1.04509h-10.4516q-13.587,1.04509-28.2193,8.36073-19.858,9.40583-30.3096,31.35276-8.3612,16.72147-11.4967,43.89386h170.3608v1.04509h1.0452v-1.04509h1.0451q13.5871,1.04509,22.4709,10.45092,8.8839,9.40583,8.8839,24.03711-1.0452,5.22546-1.0452,10.45092v2.09019q2.0904-2.09019,3.1355-2.09019l11.4968-10.45092q10.4515-8.36073,22.9934-16.72147,12.5419-8.36073,27.1742-13.58619,19.858-7.31565,38.6708-9.40583,18.8129-2.09018,32.3999-2.09018,20.9032,0,21.9484,1.04509,19.858,1.04509,41.8063,12.5411,25.0838,13.5862,39.716,40.75859l4.1806,10.45091,6.271-6.27055q3.1355-4.18036,8.3613-7.31564,49.1224-42.84877,95.1094-50.16441,12.5419-2.09018,27.1741-2.09018t31.3547,2.09018q25.0838,3.13527,45.987,13.58619,22.9935,12.54111,35.0128,36.57822t14.1097,54.34478q1.0451,26.1273-3.1355,53.29969v3.13527l-4.1806,36.57822-3.1355,17.76656-2.0903,15.67638q-2.0904,8.36073-3.1355,17.24402-1.0452,8.88328-1.0452,17.24401l-4.1806,22.99202-2.0903,16.72147-2.0903,10.45092-1.0452,11.49601-6.2709,43.89386-4.1807,35.53313-4.1806,22.99202-7.3161,58.52515-1.0452,2.09018q-1.0451,12.5411-5.2258,24.03711-6.2709,14.63129-20.9031,18.81166-8.3613,2.09018-18.8129,2.09018h-55.3934q-18.8128,0-26.129-15.67638-3.1354-8.36073-3.1354-12.5411l3.1354-24.03711,2.0904-9.40583v-3.13528q2.0903-7.31564,2.0903-13.58619,2.0903-9.40583,2.0903-18.81165,3.1355-15.67638,4.1806-30.30767,3.1355-18.81165,5.2258-37.62331l3.1355-18.81165,7.3161-55.38987,2.0903-12.54111q1.0452-15.67637,4.1807-29.26257,2.0903-9.40583,2.0903-17.76656,3.1355-14.63129,4.1806-28.21748l1.0452-2.09019q3.1354-27.17239,5.2258-55.38987,2.0903-17.76656-6.271-30.30766-8.3613-12.54111-20.9032-14.63129-8.3612-2.09018-16.7225-2.09018-11.4967,0-22.9935,4.18036l-6.2709,3.13528q-22.9935,9.40583-44.9418,32.39785-1.0452,2.09018-4.1807,4.18037-3.1354,4.18036-4.1806,9.40582l-5.2258,48.07423-10.4516,70.02116q0,8.36073-1.0451,17.24402-1.0452,8.88328-3.1355,17.24401l-3.1355,22.99202-2.0903,11.49601q0,9.40583-2.0903,16.72147l-2.0903,15.67638q-3.1355,20.90184-5.2258,39.7135l-3.1355,24.03711q-1.0452,12.5411-4.1806,26.1273,0,4.18036-1.0452,9.40582-1.0452,13.5862-4.1806,28.21748-7.3161,30.30767-36.5806,31.35276h-60.6192q-22.9934,0-28.2192-19.85674-2.0904-7.31565-1.0452-16.72147v-2.09019q2.0903-6.27055,2.0903-12.5411l2.0903-8.36074,6.271-49.11932q2.0903-17.76656,5.2258-35.53312l2.0903-18.81165,8.3613-54.34478,7.3161-56.43497,7.3161-44.93895q0-9.40582,2.0903-16.72147,5.2258-30.30766,3.1355-59.57024-1.0452-24.03711-18.8129-31.35275-11.4967-5.22546-22.9935-5.22546l-9.4064,1.04509q-24.0386,4.18037-41.8063,17.24402-17.7677,13.06364-31.3548,27.69493-3.1355,3.13528-4.1806,8.36074l-1.0452,13.58619q-2.0903,8.36074-2.0903,16.72147l-6.2709,35.53313v4.18036l-2.0904,11.49601-2.0903,18.81166q-1.0451,14.63128-4.1806,29.26257-2.0903,18.81166-5.2258,37.62331l-2.0903,17.76656-17.7677,124.36594q-2.0903,18.81165-6.271,38.6684-2.0903,10.45092-8.8838,17.76656t-16.2,9.40583q-6.2709,2.09018-14.6322,2.09018h-59.574q-19.858,0-25.0838-17.76656-2.0903-9.40583-1.0452-20.90184,0-7.31564,2.0904-13.58619l1.0451-7.31565q4.1806-28.21748,7.3161-54.34478,2.0903-8.36073,2.0903-16.72147l3.1355-18.81165q0-9.40583,2.0903-17.76656,2.0903-8.36074,2.0903-15.67638l3.1355-17.76656q0-7.31565,2.0903-16.72147l13.5871-100.32883,4.1806-26.12729,3.1355-24.03712q2.0903-8.36073,2.0903-17.76656,2.0903-7.31564,2.0903-16.72147l5.2258-29.26257h-86.7481q-3.1355,0-4.1807,4.18036l-4.1806,26.1273-1.0451,10.45092q-1.0452,2.09019-1.0452,5.22546l-2.0903,10.45092q0,9.40583-2.0903,17.76656-1.0452,14.63129-4.1807,30.30767l-6.2709,47.02913-3.1355,17.76656q0,9.40583-2.0903,17.76657-2.0903,8.36073-2.0903,17.76656l-3.1355,16.72147-9.4064,65.84079-8.3613,65.84079q-27.1741,153.62851-85.703,192.81945-58.5289,39.19095-98.2449,38.14586-21.9483,3.13528-41.8063-5.22546-11.4968-4.18037-20.3806-14.63129t-10.9742-28.21748zm-1543.69892-965.66491q-89.88362,4.18036-109.21905,47.551678-19.33543,43.371314-15.1548,77.859346v17.7665626l-6.27095-16.7214706q0-1.045092-10.45158-16.72147-10.45159-15.676379-35.53539-36.578217-22.99348-19.856746-68.98045-36.578219-45.98697-16.72147-118.1029-17.76656-158.86408,4.18037-261.81218,119.1404771-102.9481052,114.9601129-106.0835804,292.6257329,3.1354752,183.93617,100.8577904,300.46392,97.72231,116.52775,252.40575,120.70811h13.58706q81.52235-4.18036,147.36733-38.6684,55.3934-29.26257,86.74815-79.42698l6.27095-11.49601v21.94693q-2.09032,39.71349,20.90317,76.81425,22.99348,37.10077,103.47068,39.19095,79.43204,0,107.65131-57.48005,11.49675-24.03712,13.58706-47.55169,2.09032-23.51456,2.09032-37.10076v-544.492878q4.18063-56.434963-15.1548-112.869926-19.33543-56.434966-108.17389-60.615326zm-321.90879,627.05514q-72.11593-1.0451-111.30937-51.20951t-39.19344-131.68158q0-95.10336,39.19344-138.99722t111.30937-42.84877q64.79982-1.04509,102.42553,41.28113,37.6257,42.32623,38.67086,140.56486-1.04516,82.56226-38.67086,132.20413-37.62571,49.64186-102.42553,50.68696zm1396.33161,233.05549q-85.703-4.18037-106.0836-55.38987t-18.2902-102.41901v-549.718336q-2.0904-52.254595,18.2902-105.031736,20.3806-52.777138,106.0836-56.957508,64.7998,0,95.1094,31.35276,21.9484,24.03711,26.129,53.822229t3.1355,53.822233q-1.0452,6.2705513-1.0452,11.4960108v108.6895572l155.7286-176.620531q15.6774-17.766562,29.2644-29.262573,42.8515-37.623306,81.5224-37.623306,31.3548,0,63.7547,21.94693,13.587,9.40582,22.9934,18.811652,37.6257,42.848768,31.3548,83.084806-6.271,40.236038-34.4902,67.408427l-170.3608,182.891085,211.1219,304.12174q26.129,36.57822,20.9032,78.90444t-40.7612,72.63389q-30.3096,24.03711-71.0707,24.03711h-4.1807q-28.2192-1.04509-52.7805-15.15383-24.5612-14.10874-41.2837-38.14586l-201.7156-296.8061v190.20673q3.1355,60.61533-18.8128,108.68956-21.9484,48.07422-104.5159,51.2095z" fill="#f16541"/>
</svg>
