<?xml version="1.0" encoding="UTF-8" standalone="no"?>
<svg
   xmlns:dc="http://purl.org/dc/elements/1.1/"
   xmlns:cc="http://creativecommons.org/ns#"
   xmlns:rdf="http://www.w3.org/1999/02/22-rdf-syntax-ns#"
   xmlns:svg="http://www.w3.org/2000/svg"
   xmlns="http://www.w3.org/2000/svg"
   viewBox="0 0 93.212502 93.199997"
   height="93.199997"
   width="93.212502"
   xml:space="preserve"
   version="1.1"
   id="svg2"><metadata
     id="metadata8"><rdf:RDF><cc:Work
         rdf:about=""><dc:format>image/svg+xml</dc:format><dc:type
           rdf:resource="http://purl.org/dc/dcmitype/StillImage" /></cc:Work></rdf:RDF></metadata><defs
     id="defs6"><clipPath
       id="clipPath18"
       clipPathUnits="userSpaceOnUse"><path
         id="path20"
         d="M 0,745.648 0,0 l 745.648,0 0,745.648 -745.648,0 z" /></clipPath></defs><g
     transform="matrix(1.25,0,0,-1.25,0,93.2)"
     id="g10"><g
       transform="scale(0.1,0.1)"
       id="g12"><g
         id="g14"><g
           clip-path="url(#clipPath18)"
           id="g16"><path
             id="path22"
             style="fill:#40a7bd;fill-opacity:1;fill-rule:nonzero;stroke:none"
             d="m 660.68,192.723 -106.223,0 -46.898,112.691 -46.891,-112.691 -106.23,0 -192.387,462.39 107.406,0 138.086,-331.91 46.309,111.309 -91.778,220.601 107.403,0 38.078,-91.523 38.074,91.523 107.402,0 -91.773,-220.609 46.305,-111.301 138.085,331.91 0,51.278 c -0.074,21.66 -17.597,39.179 -39.238,39.257 l -667.1522,0 C 17.5625,745.57 0,727.973 0,706.254 l 0,-667.0157 0.015625,0 C 0.0976563,17.5781 17.6914,0 39.4063,0 L 706.273,0 c 21.7,0 39.301,17.5781 39.375,39.2383 l 0,357.6957 -84.968,-204.211" /><path
             id="path24"
             style="fill:#ffffff;fill-opacity:1;fill-rule:nonzero;stroke:none"
             d="m 561.258,434.504 91.773,220.609 -107.402,0 -38.074,-91.523 -38.078,91.523 -107.403,0 91.778,-220.601 -46.309,-111.309 -138.086,331.91 -107.406,0 191.793,-461.004 0.594,-1.386 106.23,0 46.891,112.691 46.898,-112.691 106.223,0 84.968,204.211 0,258.179 -138.085,-331.91 -46.305,111.301" /></g></g></g></g></svg>